<?xml version="1.0" encoding="UTF-8"?>
<svg width="16px" height="16px" viewBox="0 0 16 16" version="1.1" xmlns="http://www.w3.org/2000/svg" xmlns:xlink="http://www.w3.org/1999/xlink">
    <!-- Generator: sketchtool 51.2 (57519) - http://www.bohemiancoding.com/sketch -->
    <title>E20BE946-93A6-438C-A777-6875DB2CBAB4-721-00002C1428A305E2@2x</title>
    <desc>Created with sketchtool.</desc>
    <defs>
        <polygon id="path-1" points="0 0 16 0 16 16 0 16"></polygon>
    </defs>
    <g id="The-Gallery" stroke="none" stroke-width="1" fill="none" fill-rule="evenodd" opacity="0.4">
        <g id="The-Gallery-desktop" transform="translate(-1074.000000, -2703.000000)">
            <g id="Footer" transform="translate(0.000000, 2129.000000)">
                <g id="instagram" transform="translate(1074.000000, 574.000000)">
                    <mask id="mask-2" fill="white">
                        <use xlink:href="#path-1"></use>
                    </mask>
                    <g id="Clip-2"></g>
                    <path d="M13.23072,3.72992 C13.23072,4.25984 12.80064,4.68992 12.27072,4.68992 C11.74016,4.68992 11.31072,4.25984 11.31072,3.72992 C11.31072,3.19936 11.74016,2.76992 12.27072,2.76992 C12.80064,2.76992 13.23072,3.19936 13.23072,3.72992 M8,10.66688 C6.52736,10.66688 5.33376,9.47264 5.33376,8 C5.33376,6.52736 6.52736,5.33376 8,5.33376 C9.47264,5.33376 10.66688,6.52736 10.66688,8 C10.66688,8.70784 10.38592,9.3856 9.88544,9.88608 C9.3856,10.38592 8.70784,10.66688 8,10.66688 M8,3.89184 C5.7312,3.89184 3.89184,5.7312 3.89184,8 C3.89184,10.2688 5.7312,12.10816 8,12.10816 C10.2688,12.10816 12.10816,10.2688 12.10816,8 C12.10816,5.7312 10.2688,3.89184 8,3.89184 M14.512,11.23264 C14.5056,11.74016 14.4128,12.24256 14.23616,12.71808 C13.96736,13.41568 13.41568,13.968 12.71808,14.2368 C12.24256,14.4128 11.74016,14.5056 11.23264,14.512 C10.38976,14.55104 10.13632,14.55872 8,14.55872 C5.86368,14.55872 5.61088,14.55104 4.76736,14.512 C4.25984,14.5056 3.75744,14.4128 3.28192,14.2368 C2.9344,14.10816 2.62016,13.904 2.36224,13.6384 C2.09664,13.38048 1.89184,13.0656 1.76384,12.71808 C1.5872,12.24256 1.4944,11.74016 1.488,11.23264 C1.4496,10.38976 1.44192,10.13632 1.44192,8 C1.44192,5.86368 1.4496,5.61088 1.488,4.76736 C1.4944,4.26048 1.5872,3.75744 1.76384,3.28192 C1.89184,2.9344 2.09664,2.62016 2.36224,2.36224 C2.62016,2.09664 2.9344,1.89184 3.28192,1.76384 C3.75744,1.5872 4.25984,1.4944 4.76736,1.48864 C5.61088,1.4496 5.86368,1.44192 8,1.44192 C10.13632,1.44192 10.38976,1.4496 11.23264,1.48864 C11.74016,1.4944 12.24256,1.5872 12.71808,1.76384 C13.0656,1.89184 13.37984,2.09664 13.6384,2.36224 C13.904,2.62016 14.10816,2.9344 14.23616,3.28192 C14.4128,3.75744 14.5056,4.26048 14.512,4.76736 C14.55104,5.61088 14.55872,5.86432 14.55872,8 C14.55872,10.13632 14.55104,10.38976 14.512,11.23264 M15.952,4.70208 C15.93856,4.03776 15.81312,3.38176 15.58016,2.75968 C15.3792,2.22592 15.06432,1.74272 14.65728,1.34336 C14.25728,0.93568 13.77472,0.62144 13.24032,0.42048 C12.61888,0.18752 11.96224,0.06208 11.29792,0.04864 C10.4448,0.0096 10.1728,0 8,0 C5.8272,0 5.5552,0.0096 4.70144,0.04864 C4.03776,0.06208 3.38112,0.18752 2.75968,0.42048 C2.22592,0.62144 1.74208,0.93568 1.34272,1.34336 C0.93568,1.74272 0.6208,2.22592 0.41984,2.75968 C0.18752,3.38176 0.06144,4.03776 0.048,4.70208 C0.0096,5.5552 0,5.8272 0,8 C0,10.1728 0.0096,10.44544 0.048,11.29856 C0.06144,11.96224 0.18752,12.61888 0.41984,13.24032 C0.6208,13.77472 0.93568,14.25792 1.34272,14.65792 C1.74208,15.06432 2.22592,15.37984 2.75968,15.58016 C3.38112,15.81312 4.03776,15.9392 4.70144,15.952 C5.5552,15.99104 5.8272,16 8,16 C10.1728,16 10.4448,15.99104 11.29792,15.952 C11.96224,15.9392 12.61888,15.81312 13.24032,15.58016 C14.31488,15.1648 15.16416,14.31552 15.58016,13.24032 C15.81312,12.61888 15.93856,11.96224 15.952,11.29856 C15.9904,10.44544 16,10.1728 16,8 C16,5.8272 15.9904,5.5552 15.952,4.70208" id="Fill-1" fill="#000000" mask="url(#mask-2)"></path>
                </g>
            </g>
        </g>
    </g>
</svg>