<?xml version="1.0" encoding="UTF-8"?>
<svg width="50px" height="44px" viewBox="0 0 50 44" version="1.1" xmlns="http://www.w3.org/2000/svg" xmlns:xlink="http://www.w3.org/1999/xlink">
    <!-- Generator: Sketch 52.1 (67048) - http://www.bohemiancoding.com/sketch -->
    <title>Footer Logo</title>
    <desc>Created with Sketch.</desc>
    <defs>
        <polygon id="path-1" points="0 0.224461817 49.8460769 0.224461817 49.8460769 43.5697115 0 43.5697115"></polygon>
    </defs>
    <g id="Symbols" stroke="none" stroke-width="1" fill="none" fill-rule="evenodd">
        <g id="Footer" transform="translate(-695.000000, -684.000000)">
            <g id="Footer-Logo" transform="translate(695.000000, 684.000000)">
                <g id="Group-3">
                    <mask id="mask-2" fill="white">
                        <use xlink:href="#path-1"></use>
                    </mask>
                    <g id="Clip-2"></g>
                    <path d="M1.74992308,2.27146023 C1.74992308,2.19521323 1.75915385,2.11741018 1.76607692,2.02093439 L2.28915385,2.02093439 C3.22915385,12.0956522 4.16992308,22.1555873 5.11376923,32.2567581 C5.01069231,32.1984058 4.943,32.1665066 4.88069231,32.125271 C3.90376923,31.4693912 2.93146154,30.8103993 1.95223077,30.1607438 C1.80453846,30.06349 1.74530769,29.9600119 1.74530769,29.7787308 C1.74992308,20.6111967 1.74915385,11.4405504 1.74992308,2.27146023 Z M10.7599231,2.0263806 C9.70376923,9.78490138 8.64915385,17.5193032 7.62453846,25.0389686 C6.95146154,17.5255275 6.25761538,9.78723547 5.563,2.0263806 L10.7599231,2.0263806 Z M12.2006923,9.37876942 C12.2322308,9.12279737 12.2599231,8.86682531 12.2891538,8.61007523 C12.3114615,8.61163129 12.3345385,8.61240932 12.3568462,8.61474341 C12.4368462,9.33675577 12.5022308,10.0595462 12.5991538,10.7776684 C12.8183846,12.4107545 13.0399231,14.0430627 13.2837692,15.6730367 C13.693,18.4148164 14.1176154,21.154262 14.5368462,23.8944856 C14.9614615,26.6736108 15.3868462,29.452736 15.8122308,32.2326392 C15.9114615,32.8854068 16.0076154,33.5397305 16.1145385,34.1917201 C16.143,34.3613308 16.0953077,34.4601407 15.9537692,34.5566165 C14.7906923,35.3548758 13.6314615,36.1601375 12.4760769,36.9685112 C12.3391538,37.064987 12.2437692,37.0875499 12.0914615,36.9825158 C11.0737692,36.2854004 10.0483846,35.5968433 9.01915385,34.9160666 C8.85915385,34.8110325 8.83069231,34.698218 8.85530769,34.5254953 C9.08146154,32.9040796 9.303,31.2811078 9.52607692,29.657358 C9.81069231,27.594799 10.0937692,25.53224 10.3776154,23.469681 C10.6799231,21.2701886 10.9968462,19.0730302 11.283,16.8704257 C11.6045385,14.3760597 11.8960769,11.8754695 12.2006923,9.37876942 Z M20.0745385,2.02482454 C19.3214615,10.0128643 18.5691538,17.9767852 17.8368462,25.7500885 C16.913,17.94722 15.4783846,10.0214227 14.3683846,2.02482454 L20.0745385,2.02482454 Z M20.8706923,22.8433664 C21.0783846,20.721677 21.2853077,18.5984316 21.4922308,16.4767423 C21.6768462,14.5713454 21.8599231,12.6636145 22.0453077,10.7582176 C22.2291538,8.8613791 22.4145385,6.96454059 22.5991538,5.0684801 C22.6860769,4.18385935 22.7760769,3.30079466 22.8591538,2.41617391 C22.8983846,2.00381772 22.8899231,2.00226165 23.2976154,2.00381772 L23.6276154,2.00381772 L23.6276154,2.33992692 C23.6276154,11.2040291 23.6268462,20.0673533 23.6322308,28.9314555 C23.6322308,29.1407457 23.5783846,29.2675647 23.4014615,29.3881594 C22.3337692,30.1171741 21.2745385,30.8594152 20.2114615,31.5954322 C20.1653077,31.6281094 20.1160769,31.6561185 20.0083846,31.7214731 C20.1145385,30.6337864 20.2114615,29.6114542 20.3114615,28.5914562 C20.4976154,26.6751669 20.6853077,24.7588776 20.8706923,22.8433664 Z M25.9806923,15.8231966 L27.6922308,15.8231966 C27.5160769,16.0036997 27.3483846,16.1515255 27.2083846,16.3211361 C26.0622308,17.7075866 25.8845385,20.4034625 27.8276154,22.0435509 C28.3376154,22.4722458 28.8991538,22.8386982 29.4214615,23.2518324 C29.7445385,23.5054704 30.0668462,23.7684447 30.3399231,24.0726546 C30.7291538,24.5036836 30.8722308,25.0288542 30.7291538,25.6123771 C30.5776154,26.2394698 30.1060769,26.6238169 29.4622308,26.6409335 C28.6537692,26.6580502 27.9383846,26.3491721 27.2468462,25.9671591 C26.9314615,25.7921022 26.6276154,25.5975945 26.2645385,25.380524 L26.2645385,28.0476128 L25.9806923,28.0476128 L25.9806923,15.8231966 Z M25.9814615,13.4291965 L26.4137692,13.4291965 L26.4137692,2.02949272 L25.9814615,2.02949272 L25.9814615,13.4291965 Z M28.633,18.2545421 C28.7753077,17.7464881 29.2306923,17.4150471 29.7783846,17.4018206 C30.3645385,17.3885941 30.9183846,17.539532 31.4514615,17.7729412 C31.7283846,17.8943139 31.9999231,18.0281352 32.3337692,18.1860754 L32.3337692,15.8185284 L33.0614615,15.8185284 L33.0614615,17.8717511 L35.8645385,17.8717511 L35.8645385,28.0499469 L31.7783846,28.0499469 C32.013,27.721618 32.2776154,27.417408 32.4691538,27.0727405 C33.4691538,25.2739338 33.0399231,23.0511005 31.4353077,21.7307826 C30.8599231,21.2577401 30.2476154,20.8306013 29.6622308,20.3692292 C29.4022308,20.1638291 29.1499231,19.9405343 28.9268462,19.6954547 C28.5499231,19.2830985 28.4883846,18.7804907 28.633,18.2545421 Z M28.6114615,3.91154866 L32.3522308,3.91154866 L32.3522308,2.02871469 L35.8191538,2.02871469 C35.6414615,2.69626492 35.4683846,3.34903256 35.2937692,4.0018002 C34.4783846,7.05868228 33.6622308,10.1140083 32.8468462,13.1693343 C32.8368462,13.2082359 32.843,13.2611419 32.8183846,13.2821488 C32.7468462,13.3436132 32.6653077,13.391073 32.5868462,13.4439791 C32.5414615,13.3739564 32.4591538,13.3047116 32.4560769,13.2331328 C32.4445385,12.779541 32.4506923,12.3236151 32.4491538,11.8700233 C32.4491538,11.7642111 32.4406923,11.658399 32.4345385,11.5300239 L28.6183846,11.5300239 L28.6183846,8.67854192 L31.963,8.67854192 L31.963,6.65021624 L28.6114615,6.65021624 L28.6114615,3.91154866 Z M38.0945385,11.2927246 C38.2853077,12.0061786 38.4722308,12.7040721 38.6660769,13.4299746 L34.9353077,13.4299746 C35.0837692,12.8659024 35.2276154,12.319725 35.3706923,11.7735475 C35.3868462,11.7175293 35.4099231,11.6615111 35.4153077,11.6031588 C35.4391538,11.3425186 35.5814615,11.2826102 35.8276154,11.2872784 C36.5768462,11.303617 37.3260769,11.2927246 38.0945385,11.2927246 Z M36.7691538,6.57474727 C36.7860769,6.57319121 36.803,6.57085712 36.8199231,6.56852303 C37.063,7.44925363 37.3053077,8.33231832 37.5560769,9.24105801 L36.0553077,9.24105801 C36.2945385,8.34787893 36.5314615,7.46092409 36.7691538,6.57474727 Z M41.0083846,2.02093439 L41.0083846,13.4019655 C40.983,13.4066336 40.9583846,13.4120799 40.9345385,13.4175261 C39.9176154,9.62696117 38.8999231,5.83795233 37.8776154,2.02093439 L41.0083846,2.02093439 Z M41.5414615,28.0546151 L38.1176154,28.0546151 L38.1176154,17.8849776 L40.9106923,17.8849776 L40.9106923,15.8200845 L41.5414615,15.8200845 L41.5414615,28.0546151 Z M43.1976154,3.88742971 C43.7614615,3.8718691 44.3045385,3.86642288 44.8206923,4.07415704 C45.1722308,4.21575861 45.3445385,4.51763447 45.3722308,4.8825308 C45.4376154,5.75159094 45.0937692,6.43392374 44.3991538,6.93730952 C44.3399231,6.97932317 44.2583846,7.00888833 44.1860769,7.01122242 C43.8660769,7.0182247 43.5453077,7.01511257 43.1976154,7.01511257 L43.1976154,3.88742971 Z M48.2360769,2.02715863 L48.2360769,12.7593122 C48.2214615,12.7647584 48.2076154,12.7694266 48.193,12.7748728 C47.3953077,11.2857223 46.5976154,9.79657184 45.7868462,8.28174633 C45.8660769,8.21405767 45.9483846,8.14948113 46.0245385,8.07790232 C47.1983846,7.00032999 47.6868462,5.66056136 47.4199231,4.08349341 C47.2668462,3.17630977 46.7422308,2.50175728 45.883,2.1306367 C45.8422308,2.11274199 45.8053077,2.08784502 45.6937692,2.02715863 L48.2360769,2.02715863 Z M43.2076154,13.4175261 L43.2076154,9.09245418 C43.4837692,9.01387309 43.6683846,9.05666477 43.8222308,9.34920426 C44.4814615,10.614282 45.1676154,11.8645771 45.8445385,13.1210964 C45.8906923,13.2059018 45.9306923,13.2930412 45.9914615,13.4175261 L43.2076154,13.4175261 Z M48.243,28.0460567 L47.6276154,28.0460567 L47.6276154,26.1772273 L43.8014615,26.1772273 L43.8014615,15.8169723 L48.243,15.8169723 L48.243,28.0460567 Z M48.2391538,41.3760544 L47.9168462,41.3760544 C45.7591538,41.3760544 43.6014615,41.3729422 41.4422308,41.3815006 C41.2160769,41.3830566 41.0968462,41.3114778 40.9868462,41.1107459 C40.1576154,39.5795818 39.3145385,38.0554199 38.4691538,36.5156974 C38.6245385,36.3787641 38.7799231,36.2480549 38.9283846,36.1087875 C40.0322308,35.0817871 40.4822308,33.2036213 39.9391538,31.8949739 C39.6706923,31.2492086 39.3453077,30.9201016 38.4860769,30.4493931 L48.2391538,30.4493931 L48.2391538,41.3760544 Z M35.8937692,35.2685144 L35.8937692,32.1672846 C36.4199231,32.2411975 36.9337692,32.2754309 37.4268462,32.3936915 C37.8783846,32.5002817 38.0976154,32.8931871 38.0753077,33.4261381 C38.0422308,34.1746035 37.7114615,34.7651287 37.0945385,35.1837091 C37.0260769,35.2296129 36.9345385,35.2615122 36.853,35.2646243 C36.5414615,35.2731826 36.2299231,35.2685144 35.8937692,35.2685144 Z M35.8922308,41.3643839 L35.8922308,37.3139568 C36.2722308,37.2003643 36.3191538,37.218259 36.5076154,37.5574804 C37.1591538,38.7354186 37.8099231,39.9141349 38.4606923,41.0928512 C38.5022308,41.1683202 38.5376154,41.2461233 38.5945385,41.3643839 L35.8922308,41.3643839 Z M33.6891538,41.3511574 L32.593,41.3511574 L32.593,39.6830599 L28.7468462,39.6830599 L28.7468462,36.9086029 L32.1191538,36.9086029 L32.1191538,34.901284 L28.7437692,34.901284 L28.7437692,32.2435316 L32.4868462,32.2435316 L32.4868462,30.4493931 L33.6891538,30.4493931 L33.6891538,41.3511574 Z M25.9860769,41.3496013 L26.5437692,41.3496013 L26.5437692,30.4369446 L25.9860769,30.4369446 L25.9860769,41.3496013 Z M23.6153077,40.144432 L13.8637692,40.144432 C17.1383846,37.8702486 20.3576154,35.6373009 23.6153077,33.3755661 L23.6153077,40.144432 Z M1.76146154,40.1343176 L1.76146154,33.6719957 C4.95530769,35.8263624 8.11992308,37.9612782 11.343,40.1343176 L1.76146154,40.1343176 Z M-7.69230769e-05,43.5701006 L49.8460769,43.5701006 L49.8460769,0.224461817 L-7.69230769e-05,0.224461817 L-7.69230769e-05,43.5701006 Z" id="Fill-1" fill="#BDBDBD" mask="url(#mask-2)"></path>
                </g>
                <path d="M44.5304727,38.2812494 C45.4026013,38.2819884 46.1032605,37.5770367 46.0936524,36.7073008 C46.0833051,35.848649 45.3826458,35.1533036 44.5304727,35.1562594 C43.6694305,35.1599541 42.9739449,35.8501269 42.9687712,36.7065618 C42.9643367,37.5829483 43.6553877,38.2805105 44.5304727,38.2812494" id="Fill-4" fill="#BDBDBD"></path>
            </g>
        </g>
    </g>
</svg>