<?xml version="1.0" encoding="UTF-8"?>
<svg width="14px" height="17px" viewBox="0 0 14 17" version="1.1" xmlns="http://www.w3.org/2000/svg" xmlns:xlink="http://www.w3.org/1999/xlink">
    <!-- Generator: sketchtool 51.2 (57519) - http://www.bohemiancoding.com/sketch -->
    <title>DAF84BE8-EDE5-4DEB-8E76-55FD27160A99-721-00002C1428A38D29@2x</title>
    <desc>Created with sketchtool.</desc>
    <defs>
        <polygon id="path-1" points="0 0 14 0 14 17 0 17"></polygon>
    </defs>
    <g id="The-Gallery" stroke="none" stroke-width="1" fill="none" fill-rule="evenodd" opacity="0.4">
        <g id="The-Gallery-desktop" transform="translate(-1130.000000, -2703.000000)">
            <g id="Footer" transform="translate(0.000000, 2129.000000)">
                <g id="pinterest" transform="translate(1130.000000, 574.000000)">
                    <mask id="mask-2" fill="white">
                        <use xlink:href="#path-1"></use>
                    </mask>
                    <g id="Clip-2"></g>
                    <path d="M5.75541946,11.2431978 C5.28174686,13.5837262 4.70585312,15.8276958 2.99472884,17 C2.46778607,13.4626878 3.76930592,10.8059637 4.37543409,7.98604181 C3.34314456,6.34522398 4.49925124,3.04590857 6.67396998,3.85917758 C9.351156,4.85876407 4.35599767,9.9552952 7.70913897,10.5931266 C11.209853,11.2567976 12.6395093,4.85536412 10.46767,2.77391225 C7.33192857,-0.23300712 1.33831447,2.7031932 2.07617833,7.00821503 C2.25542525,8.0608408 3.405773,8.37975649 2.53617345,9.83221686 C0.528463902,9.41266253 -0.0711854547,7.91600276 0.00656020019,5.9222697 C0.131097221,2.65831381 3.10990759,0.374224674 6.09951597,0.0573489564 C9.87953851,-0.343165631 13.4270439,1.36905123 13.9179934,4.72684585 C14.4686917,8.51915461 12.2119082,12.6256191 8.1691341,12.3305031 C7.07277639,12.2489042 6.61350113,11.7361911 5.75541946,11.2431978" id="Fill-1" fill="#000000" mask="url(#mask-2)"></path>
                </g>
            </g>
        </g>
    </g>
</svg>