<?xml version="1.0" encoding="UTF-8"?>
<svg width="16px" height="13px" viewBox="0 0 16 13" version="1.1" xmlns="http://www.w3.org/2000/svg" xmlns:xlink="http://www.w3.org/1999/xlink">
    <!-- Generator: sketchtool 51.2 (57519) - http://www.bohemiancoding.com/sketch -->
    <title>FD0360A2-7757-409D-A0CE-F9B8E3DB7395-721-00002C1428A524CC@2x</title>
    <desc>Created with sketchtool.</desc>
    <defs>
        <polygon id="path-1" points="0 0 16 0 16 13 0 13"></polygon>
    </defs>
    <g id="The-Gallery" stroke="none" stroke-width="1" fill="none" fill-rule="evenodd" opacity="0.4">
        <g id="The-Gallery-desktop" transform="translate(-1159.000000, -2705.000000)">
            <g id="Footer" transform="translate(0.000000, 2129.000000)">
                <g id="twitter" transform="translate(1159.000000, 576.000000)">
                    <mask id="mask-2" fill="white">
                        <use xlink:href="#path-1"></use>
                    </mask>
                    <g id="Clip-2"></g>
                    <path d="M14.3617626,3.23640909 C14.3694456,3.37704545 14.3718096,3.51945455 14.3718096,3.66068182 C14.3718096,7.99972727 11.0699221,13 5.03232002,13 C3.1777786,13 1.45325601,12.4569545 0,11.5245 C0.257673697,11.5552273 0.518302368,11.5705909 0.782477007,11.5705909 C2.32201825,11.5705909 3.73626861,11.0458636 4.85915857,10.1671818 C3.4236324,10.14 2.21032025,9.19218182 1.79307797,7.88804545 C1.99342518,7.92527273 2.19909135,7.94536364 2.41066745,7.94536364 C2.71089277,7.94536364 3.00107118,7.90577273 3.27588372,7.83131818 C1.77416614,7.52877273 0.643002253,6.20277273 0.643002253,4.61204545 L0.643002253,4.57068182 C1.0856573,4.81709091 1.59213977,4.96481818 2.12994496,4.98254545 C1.24877184,4.39281818 0.669006021,3.38945455 0.669006021,2.24959091 C0.669006021,1.64863636 0.830347579,1.08431818 1.11402504,0.599181818 C2.73216858,2.58581818 5.15229195,3.89172727 7.88032357,4.02940909 C7.82417907,3.78831818 7.79581132,3.53895455 7.79581132,3.28072727 C7.79581132,1.469 9.2644332,0 11.077605,0 C12.0220146,0 12.8748199,0.397681818 13.4740886,1.03586364 C14.2211059,0.888136364 14.9237986,0.614545455 15.5585269,0.239318182 C15.3132641,1.00513636 14.7925978,1.64863636 14.1153178,2.05459091 C14.7795959,1.97481818 15.4107783,1.79990909 16,1.53813636 C15.5602999,2.19759091 15.0035829,2.77490909 14.3617626,3.23640909" id="Fill-1" fill="#000000" mask="url(#mask-2)"></path>
                </g>
            </g>
        </g>
    </g>
</svg>