<svg xmlns="http://www.w3.org/2000/svg" width="15" height="15" viewBox="0 0 15 15">
  <path fill="#000000" fill-rule="evenodd" d="M14.0230443,5.39626756 L7.81321311,0.218646353 C7.46142317,-0.0736467656 6.91077808,-0.0722491892 6.56138398,0.219045661 L0.351952092,5.39586825 C0.151499707,5.56297846 0.0279140237,5.7981706 0.00415522508,6.05792015 C-0.0196035735,6.31826867 0.0590600117,6.5716293 0.226369871,6.77208169 C0.412846491,6.99569391 0.686571809,7.12407128 0.977467352,7.12407128 C1.20567161,7.12407128 1.42748695,7.04361081 1.60298261,6.8972646 L6.21458538,3.05293127 L6.20360442,13.0869308 C6.20360442,13.6249977 6.64144514,14.0638367 7.18011101,14.0646353 L7.18170824,14.0646353 C7.71937584,14.0646353 8.15781552,13.6271939 8.15861414,13.0887276 L8.16959509,3.06031846 L12.7730121,6.89766391 C12.9485077,7.04341116 13.1703231,7.12347232 13.3977287,7.12347232 C13.6886242,7.12347232 13.9623496,6.99549425 14.1484269,6.77208169 C14.3153374,6.57182895 14.3947996,6.31846832 14.3714401,6.05831946 C14.3470824,5.79837025 14.2234967,5.56317811 14.0230443,5.39626756" transform="rotate(90 7.114 7.579)"/>
</svg>
