<svg xmlns="http://www.w3.org/2000/svg" width="17" height="18" viewBox="0 0 17 18">
  <path fill="#020302" fill-rule="evenodd" d="M1.01540765,0.000251131322 L0.0585973085,5.77459733 L0,6.18980111 L0.0401810115,6.23500475 L0.0401810115,17.0043529 L16.9547127,17.0043529 L16.9547127,6.22077398 L16.9999163,6.16719929 L15.9803231,0.000251131322 L1.01540765,0.000251131322 Z M11.0338732,1.7045957 L14.5472004,1.7045957 L15.1097345,5.1049138 L11.0338732,5.1049138 L11.0338732,1.7045957 Z M7.65197138,5.1049138 L9.34292228,5.1049138 L9.34292228,1.7045957 L7.65197138,1.7045957 L7.65197138,5.1049138 Z M2.44853039,1.7045957 L5.96185758,1.7045957 L5.96185758,5.1049138 L1.8809736,5.1049138 L2.44853039,1.7045957 Z M11.0388958,6.80423575 L15.2679473,6.80423575 L15.2679473,15.3041939 L15.2637618,15.3041939 L1.73113191,15.3041939 L1.73113191,6.80423575 L5.96185758,6.80423575 L5.96185758,11.0935587 L8.49995814,9.50724588 L11.0388958,11.0935587 L11.0388958,6.80423575 Z M7.64778586,6.80423575 L9.34375939,6.80423575 L9.34375939,8.0305937 L8.49493552,7.50154372 L7.64778586,8.0305937 L7.64778586,6.80423575 Z"/>
</svg>
