<svg xmlns="http://www.w3.org/2000/svg" width="12" height="12" viewBox="0 0 12 12">
  <path fill="#B2B2B2" fill-rule="evenodd" d="M940.595774,16.668946 C938.903138,16.668946 937.531709,15.2952393 937.531709,13.6012382 C937.531709,11.9072371 938.903138,10.5341774 940.595774,10.5341774 C942.287763,10.5341774 943.659838,11.9072371 943.659838,13.6012382 C943.659838,15.2952393 942.287763,16.668946 940.595774,16.668946 M947.264848,19.1937711 L944.33909,16.265181 C944.875511,15.5126512 945.191547,14.59318 945.191547,13.6012382 C945.191547,11.0641189 943.12988,9 940.595774,9 C938.061667,9 936,11.0641189 936,13.6012382 C936,16.1390045 938.061667,18.2024764 940.595774,18.2024764 C941.586537,18.2024764 942.504916,17.8860644 943.256553,17.3496523 L946.181665,20.2782424 C946.331604,20.4290072 946.52743,20.503419 946.723256,20.503419 C946.919729,20.503419 947.115555,20.4290072 947.264848,20.2788895 C947.56408,19.979301 947.56408,19.4933595 947.264848,19.1937711" transform="translate(-936 -8.5)"/>
</svg>
