<svg xmlns="http://www.w3.org/2000/svg" width="25" height="18" viewBox="0 0 25 18">
  <g fill="none" fill-rule="evenodd" transform="translate(1 1)">
    <path fill="#020302" d="M16.512,11.2753778 L16.512,3.94382222 L19.2204444,3.94382222 L22.272,6.99626667 L22.272,11.2753778 L16.512,11.2753778 Z M19.6542222,14.9411556 C19.0764444,14.9411556 18.6071111,14.4709333 18.6071111,13.8940444 C18.6071111,13.3162667 19.0764444,12.8460444 19.6542222,12.8460444 C20.2328889,12.8460444 20.7022222,13.3162667 20.7022222,13.8940444 C20.7022222,14.4709333 20.2328889,14.9411556 19.6542222,14.9411556 L19.6542222,14.9411556 Z M15.4648889,2.89582222 L15.4648889,7.60871111 L15.456,7.60871111 L15.456,9.70382222 L15.4648889,9.70382222 L15.4648889,11.2753778 L15.4648889,11.2753778 L1.32533333,11.2753778 L1.32533333,9.70382222 L1.328,9.70382222 L1.328,7.60871111 L1.32533333,7.60871111 L1.32533333,1.32515556 L15.4648889,1.32515556 L15.4648889,2.89582222 Z M4.46666667,14.9411556 C3.88888889,14.9411556 3.41955556,14.4709333 3.41955556,13.8940444 C3.41955556,13.3162667 3.88977778,12.8460444 4.46666667,12.8460444 C5.04444444,12.8460444 5.51466667,13.3162667 5.51466667,13.8940444 C5.51466667,14.4709333 5.04444444,14.9411556 4.46666667,14.9411556 L4.46666667,14.9411556 Z M23.3208889,6.5616 L19.6542222,2.89582222 L16.512,2.89582222 L16.512,0.277155556 L0.277333333,0.277155556 L0.277333333,12.3224889 L3.09688889,12.3224889 C2.656,12.7064889 2.37155556,13.2647111 2.37155556,13.8931556 C2.37155556,15.0496 3.312,15.9882667 4.46666667,15.9882667 C5.62222222,15.9882667 6.56177778,15.0496 6.56177778,13.8931556 C6.56177778,13.2647111 6.27733333,12.7064889 5.83822222,12.3224889 L15.4648889,12.3224889 L16.512,12.3224889 L18.2844444,12.3224889 C17.8444444,12.7064889 17.5591111,13.2647111 17.5591111,13.8931556 C17.5591111,15.0496 18.4995556,15.9882667 19.6542222,15.9882667 C20.8088889,15.9882667 21.7493333,15.0496 21.7493333,13.8931556 C21.7493333,13.2647111 21.4648889,12.7064889 21.0257778,12.3224889 L23.3208889,12.3224889 L23.3208889,6.5616 Z"/>
    <path stroke="#020302" stroke-width=".624" d="M16.512,11.2753778 L16.512,3.94382222 L19.2204444,3.94382222 L22.272,6.99626667 L22.272,11.2753778 L16.512,11.2753778 Z M19.6542222,14.9411556 C19.0764444,14.9411556 18.6071111,14.4709333 18.6071111,13.8940444 C18.6071111,13.3162667 19.0764444,12.8460444 19.6542222,12.8460444 C20.2328889,12.8460444 20.7022222,13.3162667 20.7022222,13.8940444 C20.7022222,14.4709333 20.2328889,14.9411556 19.6542222,14.9411556 Z M15.4648889,2.89582222 L15.4648889,7.60871111 L15.456,7.60871111 L15.456,9.70382222 L15.4648889,9.70382222 L15.4648889,11.2753778 L15.4648889,11.2753778 L1.32533333,11.2753778 L1.32533333,9.70382222 L1.328,9.70382222 L1.328,7.60871111 L1.32533333,7.60871111 L1.32533333,1.32515556 L15.4648889,1.32515556 L15.4648889,2.89582222 Z M4.46666667,14.9411556 C3.88888889,14.9411556 3.41955556,14.4709333 3.41955556,13.8940444 C3.41955556,13.3162667 3.88977778,12.8460444 4.46666667,12.8460444 C5.04444444,12.8460444 5.51466667,13.3162667 5.51466667,13.8940444 C5.51466667,14.4709333 5.04444444,14.9411556 4.46666667,14.9411556 Z M23.3208889,6.5616 L19.6542222,2.89582222 L16.512,2.89582222 L16.512,0.277155556 L0.277333333,0.277155556 L0.277333333,12.3224889 L3.09688889,12.3224889 C2.656,12.7064889 2.37155556,13.2647111 2.37155556,13.8931556 C2.37155556,15.0496 3.312,15.9882667 4.46666667,15.9882667 C5.62222222,15.9882667 6.56177778,15.0496 6.56177778,13.8931556 C6.56177778,13.2647111 6.27733333,12.7064889 5.83822222,12.3224889 L15.4648889,12.3224889 L16.512,12.3224889 L18.2844444,12.3224889 C17.8444444,12.7064889 17.5591111,13.2647111 17.5591111,13.8931556 C17.5591111,15.0496 18.4995556,15.9882667 19.6542222,15.9882667 C20.8088889,15.9882667 21.7493333,15.0496 21.7493333,13.8931556 C21.7493333,13.2647111 21.4648889,12.7064889 21.0257778,12.3224889 L23.3208889,12.3224889 L23.3208889,6.5616 Z"/>
  </g>
</svg>
