<svg xmlns="http://www.w3.org/2000/svg" width="16" height="21" viewBox="0 0 16 21">
  <g fill="none" fill-rule="evenodd" transform="translate(0 1.68)">
    <path fill="#020302" d="M7.75427933,9.25225353 C7.05802106,9.25225353 6.49252348,9.8177511 6.49252348,10.5140094 C6.49252348,10.9326134 6.69800458,11.2994227 7.01132081,11.5286784 L7.01132081,13.4765034 C7.01132081,13.8866165 7.34331713,14.2194619 7.75427933,14.2194619 C8.16439243,14.2194619 8.49723785,13.8866165 8.49723785,13.4765034 L8.49723785,11.5286784 C8.81055407,11.2994227 9.01603517,10.9326134 9.01603517,10.5140094 C9.01603517,9.8177511 8.4505376,9.25225353 7.75427933,9.25225353"/>
    <path fill="#020302" d="M13.9574311,8.85920724 L13.9514874,8.85920724 L13.9514874,10.7773139 L13.9574311,10.7773139 L13.9574311,16.5299356 L1.5504483,16.5299356 L1.5504483,16.3804948 L1.49865348,16.3804948 L1.49865348,6.82817092 L13.9166745,6.82817092 L13.9166745,6.94194971 L13.9574311,6.94194971 L13.9574311,8.85920724 Z M0,18.4480422 L15.5087285,18.4480422 L15.5087285,5.02384308 L0,5.02384308 L0,18.4480422 Z"/>
    <polyline stroke="#020302" stroke-width="2" points="3.986 5.85 3.986 0 11.522 0 11.522 6.014"/>
  </g>
</svg>
